<svg xmlns="http://www.w3.org/2000/svg" width="322.697" height="149.674" viewBox="0 0 322.697 149.674">
  <g id="Group_663" data-name="Group 663" transform="translate(-127 -56.696)">
    <g id="Group_661" data-name="Group 661" transform="translate(127 155.37)">
      <path id="Path_1839" data-name="Path 1839" d="M768.974,30.241a3.438,3.438,0,1,1-3.438,3.438,3.437,3.437,0,0,1,3.438-3.438" transform="translate(-660.171 -30.241)" fill="#7a2483"/>
      <g id="Group_660" data-name="Group 660" transform="translate(0 0.245)">
        <path id="Path_1838" data-name="Path 1838" d="M512.724,114.723a23.908,23.908,0,0,0-2.767-.874.7.7,0,0,0-.363.068v0a2.589,2.589,0,0,0-.31.884l-.132.827H506.3l-1.849-13.213h3.021l.24.638a18.176,18.176,0,0,0,2.976,5.385,9.652,9.652,0,0,0,3.2,2.516,8.99,8.99,0,0,0,3.87.829,5.459,5.459,0,0,0,3.731-1.359,4.62,4.62,0,0,0,1.506-3.722,5.234,5.234,0,0,0-1.571-3.8,32.4,32.4,0,0,0-4.931-3.5l-4.521-2.816a17.186,17.186,0,0,1-3.448-2.771l-.009-.01a9.078,9.078,0,0,1-2.5-6.177,10.014,10.014,0,0,1,2.945-7.35A10.506,10.506,0,0,1,516.7,77.34a14.549,14.549,0,0,1,4.672.946,23.589,23.589,0,0,0,2.616.835,1.021,1.021,0,0,0,.554-.1,2.377,2.377,0,0,0,.388-.928l.182-.751h2.742l1.364,13.213H526.1l-.188-.74c-.8-3.139-2.062-5.338-3.755-6.535a8.856,8.856,0,0,0-5.072-1.833,4.907,4.907,0,0,0-3.17,1.065,3.312,3.312,0,0,0-1.24,2.778,4.183,4.183,0,0,0,1,2.844l.006.006A15.092,15.092,0,0,0,517.293,91l4.646,2.865a24.627,24.627,0,0,1,6.395,5.155l.007.01A9.516,9.516,0,0,1,530.3,105a9.888,9.888,0,0,1-3.464,7.674,12.615,12.615,0,0,1-8.663,3.035,16.635,16.635,0,0,1-5.45-.987m-121.178.906L378.256,86c-1.364-3.048-2.095-3.982-2.409-4.268a3.76,3.76,0,0,0-2.307-.779l-.916-.062v-2.8h16.025v2.932l-.969.013a9.611,9.611,0,0,0-2.421.211c-.491.161-.583.385-.583.742a4.41,4.41,0,0,0,.385,1.45c.294.754.854,2.048,1.669,3.847v0l7.281,16.224,6.668-17.69c.316-.847.559-1.568.723-2.142a4.613,4.613,0,0,0,.22-1.2,1.073,1.073,0,0,0-.7-1.154,7.068,7.068,0,0,0-2.215-.29L397.753,81V78.085h12.774v2.74l-.847.117a3.906,3.906,0,0,0-1.98.683l0,0a9.084,9.084,0,0,0-2.111,3.652v0l-11.932,30.345Zm287-.619v-2.842l.9-.073c2.67-.215,3.24-.721,3.33-.82s.54-.755.54-3.594V88.524l-11.9,26.486h-1.986L657.752,89.66v16.6c0,3.426.62,4.584.99,4.97.178.181.835.622,3.087.865l.876.1v2.818H648.331v-2.823l.884-.09c2.5-.256,3.289-.814,3.542-1.125.214-.264.711-1.252.711-4.71V84.795c0-2.206-.42-2.847-.6-3.019-.15-.143-.842-.621-3.471-.748l-.933-.045v-2.9h12.061L672.1,103.321l11.067-25.235h12.15v2.878l-.913.064c-2.321.163-2.984.6-3.162.78-.134.135-.569.751-.569,2.987v23.5c0,2.291.419,2.87.548,2.992.181.173.856.6,3.2.8l.9.078v2.836Zm-58.336,0v-2.835l.9-.079a10.766,10.766,0,0,0,2.675-.42,1.119,1.119,0,0,0,.093-.563,5.4,5.4,0,0,0-.226-1.117,13.922,13.922,0,0,0-.675-1.928l-1.936-4.488H608.516c-1.218,3.064-1.958,4.973-2.2,5.675a4.9,4.9,0,0,0-.344,1.5c0,.63.249.839.519.969a7.6,7.6,0,0,0,2.194.375l.9.075v2.84H597.142V112.2l.871-.1a3.316,3.316,0,0,0,2.393-1.174c.43-.555,1.362-2.207,3.369-6.929l11.271-26.528h2.323l.258.589,13.157,29.955a11.316,11.316,0,0,0,1.861,3.368,4.014,4.014,0,0,0,2.122.724l.847.117v2.792Zm-9.957-15.535h9.2l-4.632-11.022ZM567.239,115.01v-2.826l.884-.088c2.618-.259,3.173-.732,3.258-.824.049-.056.5-.629.5-3.591V98.394H557.824V108.3c0,2.288.434,2.874.568,3,.188.177.876.609,3.2.794l.9.072v2.844H545.85v-2.818l.876-.095c2.607-.283,3.177-.757,3.265-.85.049-.054.5-.614.5-3.567V84.795c0-2.252-.438-2.858-.572-2.99-.182-.179-.855-.615-3.16-.778l-.912-.064V78.086h16.643v2.877l-.912.064c-2.307.164-2.992.6-3.178.785-.136.132-.579.736-.579,2.984V94.11h14.059V84.795c0-2.258-.431-2.863-.564-2.995-.177-.178-.842-.609-3.166-.772l-.913-.064V78.086h16.643v2.877l-.912.064c-2.308.164-2.978.6-3.16.778-.135.132-.572.736-.572,2.99v23.5c0,2.287.425,2.864.555,2.987.185.174.869.6,3.194.808l.9.079v2.836Zm-94.793,0v-2.851l.912-.066c2.645-.19,3.437-.6,3.651-.766.059-.045.572-.513.572-3.028v-23.5c0-2.292-.475-2.888-.62-3.016-.209-.184-.978-.625-3.579-.75l-.933-.045v-2.9h17.6v2.9l-.933.045c-2.6.125-3.37.566-3.579.751-.148.128-.62.723-.62,3.016v23.5c0,2.515.513,2.982.572,3.028.216.167,1.006.576,3.651.766l.912.066v2.851Zm-22.772,0-.295-.381L437.1,98.776l-1.494.066V108.3c0,2.379.465,2.91.558,2.995.2.172.907.595,3.317.8l.9.077v2.838H423.735V112.18l.891-.083c2.512-.234,3.044-.737,3.128-.835.123-.147.522-.843.522-3.579V84.795c0-2.216-.43-2.831-.561-2.967-.174-.18-.824-.619-3.077-.8l-.9-.073V78.086h15.612a22.592,22.592,0,0,1,7.961,1.227,10.112,10.112,0,0,1,4.783,3.462,9.3,9.3,0,0,1,1.629,5.532,8.377,8.377,0,0,1-2.925,6.821,12.349,12.349,0,0,1-3.289,1.908,17.253,17.253,0,0,1-2.516.777l9.851,12.115a6.415,6.415,0,0,0,1.733,1.571,5.621,5.621,0,0,0,2.194.6l.884.087v2.827ZM435.692,82.222a1.984,1.984,0,0,0-.086.687V94.916a23.35,23.35,0,0,0,6.8-1.072,5.6,5.6,0,0,0,2.7-2.111A6.313,6.313,0,0,0,446,88.254a6.454,6.454,0,0,0-.8-3.358,5.046,5.046,0,0,0-2.383-2.013h0a12.336,12.336,0,0,0-4.938-.817,8.808,8.808,0,0,0-2.183.154Z" transform="translate(-372.624 -64.955)" fill="#7a2483"/>
        <path id="Path_1840" data-name="Path 1840" d="M769.643,31.156a3.192,3.192,0,1,1-3.192,3.192A3.192,3.192,0,0,1,769.643,31.156Z" transform="translate(-660.843 -31.156)" fill="none" stroke="#7a2483" stroke-width="0.1"/>
      </g>
    </g>
    <path id="Path_1842" data-name="Path 1842" d="M46.6,93.252a46.97,46.97,0,0,1-9.392-.947,46.354,46.354,0,0,1-16.663-7.012,46.733,46.733,0,0,1-16.883-20.5A46.39,46.39,0,0,1,.946,56.046a47.041,47.041,0,0,1,.116-19.329A46.343,46.343,0,0,1,8.89,19.274a46.958,46.958,0,0,1,6.319-7.058,32.188,32.188,0,0,0,2.857,6.732A34.074,34.074,0,0,0,22.334,24.9a34.41,34.41,0,0,0,5.436,4.91,32.989,32.989,0,0,0,6.358,3.616,2.4,2.4,0,0,0,.26.174l.063.037a1.091,1.091,0,0,1,.234.161,1.175,1.175,0,0,1,.153.2,1.067,1.067,0,0,0,.174.219,1.041,1.041,0,0,0,.244.148l.084.042a2.415,2.415,0,0,1,.527.4c.084.074.167.151.255.221a3.277,3.277,0,0,0,.472.3c.087.048.185.1.276.159a5.283,5.283,0,0,1,.469.327c.05.037.1.079.147.116a1.489,1.489,0,0,0,.586.343,1.856,1.856,0,0,1,.666.344l.005,0a1.387,1.387,0,0,1,.177.159,1.529,1.529,0,0,0,.167.151,2.693,2.693,0,0,0,.479.256,3.336,3.336,0,0,1,.4.2c.227.142.468.266.7.387a7.263,7.263,0,0,1,.936.544,1.156,1.156,0,0,0,.369.178c.061.018.118.041.174.061a1.475,1.475,0,0,0,.364.1l.027,0h0a.7.7,0,0,0,.081.006h.031l.042-.006A166.966,166.966,0,0,0,50.1,53.792c1.688,3.094,3.675,6.313,6.441,10.436,2.082,3.016,4.063,5.645,6.056,8.038l-.013,0c-.055-.013-.119-.028-.179-.044l-.889-.26c-.34-.111-.7-.232-1.064-.374-.11-.045-.222-.1-.333-.153a2.981,2.981,0,0,0-.589-.239c-.159-.037-.32-.059-.476-.08l-.186-.026a2.676,2.676,0,0,1-.525-.154l-.089-.032c-.654-.232-1.412-.506-2.125-.829l-.184-.083-.018-.009a6.248,6.248,0,0,0-1.151-.439c-.087-.02-.174-.034-.257-.048a2.387,2.387,0,0,1-.4-.088c-.225-.079-.45-.179-.666-.277h0L53.4,69.1c-.122-.056-.247-.118-.366-.177-.219-.109-.444-.219-.671-.307-.1-.038-.2-.07-.3-.1a2.611,2.611,0,0,1-.595-.243l-.169-.1a2.648,2.648,0,0,0-.627-.321l-.058-.016a34.55,34.55,0,0,1-4.412-4.323c-.567-.624-1.153-1.269-1.748-1.883A42.22,42.22,0,0,0,14.744,48.789h-.371A183.2,183.2,0,0,0,32.736,63.42a40.23,40.23,0,0,0,9.831,5.416,15.475,15.475,0,0,0,5.032,1,10.2,10.2,0,0,0,2.613-.344c.1.039.2.074.294.106l.083.027.011,0a2.911,2.911,0,0,1,.438.166,2.673,2.673,0,0,1,.327.208,1.971,1.971,0,0,0,.8.378c.05.014.1.027.144.042a6.547,6.547,0,0,1,.991.414c.15.072.3.147.461.216a8.4,8.4,0,0,0,.852.3h0c.151.048.307.1.457.15.288.1.574.214.849.333.09.037.181.078.269.117a3.779,3.779,0,0,0,1.027.342,4.525,4.525,0,0,1,1.149.344l.652.318a6.99,6.99,0,0,0,.826.256c.222.059.45.119.67.2.383.139.781.261,1.165.378h0a17.063,17.063,0,0,1,1.654.569,3.212,3.212,0,0,0,.617.182c.093.018.185.042.275.061h0a4.547,4.547,0,0,0,.474.093l.067.075.037.042a28.977,28.977,0,0,0-5.255-.478,29.345,29.345,0,0,0-14.047,3.555c-1.153.63-2.316,1.38-3.44,2.107-2.608,1.685-5.3,3.426-8.272,3.953a20.609,20.609,0,0,0,6.8,1.1A32.042,32.042,0,0,0,51,83.127a93.183,93.183,0,0,0,10.437-4.6l.006,0c1.539-.754,3.129-1.534,4.711-2.26.485.513.981,1.025,1.475,1.522.273.26.55.526.817.783l.033.031a52.5,52.5,0,0,0,3.967,3.561l2.136,1.747A46.446,46.446,0,0,1,46.6,93.252M75.969,82.836h0a90.428,90.428,0,0,1-7.212-6.377A91.494,91.494,0,0,1,55.9,60.391,159.363,159.363,0,0,1,46.8,43.57a1.943,1.943,0,0,0,.41-.629,4.972,4.972,0,0,1,.256-.541l.018-.035,0-.008a.619.619,0,0,1,.12-.187.958.958,0,0,0,.217-.432c.017-.054.032-.1.05-.152l.266-.675c.111-.269.234-.541.366-.8.042-.083.094-.166.145-.247a1.726,1.726,0,0,0,.224-.445A3.327,3.327,0,0,0,48.945,39c0-.037.01-.074.016-.11a1.654,1.654,0,0,1,.127-.385l.037-.089.05-.122c.2-.505.417-1.027.653-1.518l.058-.118.01-.021a3.473,3.473,0,0,0,.349-.922c.013-.07.019-.14.026-.208v0a1.744,1.744,0,0,1,.051-.312,5.015,5.015,0,0,1,.208-.538l.014-.032c.038-.088.081-.179.117-.26a5.148,5.148,0,0,0,.235-.565,2.508,2.508,0,0,0,.067-.26,1.89,1.89,0,0,1,.107-.367A32.216,32.216,0,0,0,57.9,28.987a18.315,18.315,0,0,0,2.749-2.794,13.919,13.919,0,0,0,1.961-3.37,17.316,17.316,0,0,0,.348-10.49A66.284,66.284,0,0,0,59.443,1.848a46.656,46.656,0,0,1,31.6,58.84c-.474-.384-.955-.766-1.42-1.136A60.733,60.733,0,0,1,84.6,55.244a16.6,16.6,0,0,1-3.631-5.021,83.879,83.879,0,0,0,.478,13.966,30.8,30.8,0,0,0,2.973,9.693,46.869,46.869,0,0,1-8.452,8.952ZM45.91,41.711h0c-1.378-2.931-2.736-6.014-4.149-9.424-.95-2.333-1.97-4.918-3.211-8.138-1.447-3.727-2.638-6.69-3.541-8.806h.019l-.021-.008h0l-.249-.583A35.722,35.722,0,0,0,38.375.785a47,47,0,0,1,20.546.922A145.23,145.23,0,0,0,49.8,23.464a17.017,17.017,0,0,0-1.071,5.1,6.857,6.857,0,0,0,.97,3.69l-.011.051-.008.041a1.613,1.613,0,0,1-.108.377,1.722,1.722,0,0,1-.162.263,1.611,1.611,0,0,0-.168.277,1.57,1.57,0,0,0-.091.333v0c-.007.035-.013.071-.021.106a3.275,3.275,0,0,1-.295.771c-.053.111-.109.225-.157.34a4.546,4.546,0,0,0-.2.6c-.036.127-.078.272-.125.407a6.49,6.49,0,0,1-.258.639c-.026.055-.054.111-.081.166l0,.01a2.456,2.456,0,0,0-.288.8,2.518,2.518,0,0,1-.286.869,2.154,2.154,0,0,1-.145.24,2.175,2.175,0,0,0-.142.231,3.78,3.78,0,0,0-.223.583,4.22,4.22,0,0,1-.195.528c-.109.235-.211.479-.308.714l0,.006a11.345,11.345,0,0,1-.508,1.112ZM41.72,36.354h0c-.042-.015-.083-.031-.122-.049l-.514-.25a6.04,6.04,0,0,1-.594-.362,1.883,1.883,0,0,1-.175-.147A1.135,1.135,0,0,0,40,35.317a2.237,2.237,0,0,0-.316-.09l-.091-.021a1.028,1.028,0,0,1-.291-.147l-.06-.039a9.862,9.862,0,0,1-1.158-.808l-.1-.088a2.366,2.366,0,0,0-.631-.428c-.052-.02-.1-.036-.154-.05a1,1,0,0,1-.243-.094,3.053,3.053,0,0,1-.377-.288l-.008-.007c-.072-.06-.143-.125-.206-.183a3.4,3.4,0,0,0-.333-.28,1.858,1.858,0,0,0-.166-.1.978.978,0,0,1-.321-.238l-.064-.083-.008-.01c-.033-.042-.07-.092-.109-.136a26.232,26.232,0,0,0-2.781-6.791,29.367,29.367,0,0,0-4.5-5.872,30.426,30.426,0,0,0-5.825-4.611A28.585,28.585,0,0,0,15.5,11.948,46.729,46.729,0,0,1,25.23,5.236a20.6,20.6,0,0,0,3.484,5.551,17.211,17.211,0,0,0,5.094,4c.494,1.643,1.2,3.8,1.981,6.072,1.54,4.434,3.219,8.9,4.863,12.913.351.865.71,1.734,1.067,2.583Z" transform="translate(239.378 56.635)" fill="#73338a"/>
  </g>
</svg>
